<?xml version="1.0" encoding="iso-8859-1"?>
<!-- Generator: Adobe Illustrator 19.0.0, SVG Export Plug-In . SVG Version: 6.00 Build 0)  -->
<svg version="1.1" id="Layer_1" xmlns="http://www.w3.org/2000/svg" xmlns:xlink="http://www.w3.org/1999/xlink" x="0px" y="0px"
	 viewBox="0 0 488.8 488.8" style="enable-background:new 0 0 488.8 488.8;" xml:space="preserve">
<path style="fill:#0BAD6B;" d="M294.4,86.8c0,15.2-12,27.2-27.2,27.2h-216C36,114,24,102,24,86.8V34C24,18.8,36,6.8,51.2,6.8h216
	c15.2,0,27.2,12,27.2,27.2V86.8z"/>
<path style="fill:#5BC914;" d="M24.8,34c0-15.2,12-27.2,27.2-27.2h216c15.2,0,27.2,12,27.2,27.2"/>
<path style="fill:#E8490A;" d="M448.8,75.6c0,7.2-5.6,12.8-12.8,12.8H329.6c-7.2,0-12.8-5.6-12.8-12.8V50c0-7.2,5.6-12.8,12.8-12.8
	h105.6c7.2,0,12.8,5.6,12.8,12.8v25.6H448.8z"/>
<path style="fill:#FF7900;" d="M316,50c0-7.2,5.6-12.8,12.8-12.8h105.6c7.2,0,12.8,5.6,12.8,12.8"/>
<path style="fill:#8FBAC1;" d="M479.2,78.8c0,16.8-105.6,31.2-235.2,31.2S8.8,96.4,8.8,78.8c0-16.8,105.6-20,235.2-20
	S479.2,62,479.2,78.8z"/>
<g>
	<path style="fill:#4A6E70;" d="M138.4,466c0,8.8-7.2,16-16,16h-88c-8.8,0-16-7.2-16-16v-30.4c0-8.8,7.2-16,16-16h88
		c8.8,0,16,7.2,16,16V466z"/>
	<path style="fill:#4A6E70;" d="M468.8,466c0,8.8-7.2,16-16,16h-88c-8.8,0-16-7.2-16-16v-30.4c0-8.8,7.2-16,16-16h88
		c8.8,0,16,7.2,16,16V466z"/>
</g>
<path style="fill:#679499;" d="M488,425.2c0,15.2-12,27.2-27.2,27.2H27.2C12,452.4,0,440.4,0,425.2v-316C0,94,12,82,27.2,82h434.4
	c15.2,0,27.2,12,27.2,27.2v316H488z"/>
<path style="fill:#8FBAC1;" d="M488,412.4c0,15.2-12,27.2-27.2,27.2H27.2C12,439.6,0,427.6,0,412.4V97.2C0,82,12,70,27.2,70h434.4
	c15.2,0,27.2,12,27.2,27.2v315.2H488z"/>
<path style="fill:#7DAAAF;" d="M0,97.2C0,82,12,70,27.2,70h434.4c15.2,0,27.2,12,27.2,27.2v315.2c0,15.2-12,27.2-27.2,27.2"/>
<path style="fill:#576E70;" d="M435.2,365.2c0,11.2-8.8,20-20,20H72.8c-11.2,0-20-8.8-20-20V130c0-11.2,8.8-20,20-20h341.6
	c11.2,0,20,8.8,20,20v235.2H435.2z"/>
<path style="fill:#3E5966;" d="M435.2,372.4c0,11.2-8.8,20-20,20H72.8c-11.2,0-20-8.8-20-20V137.2c0-11.2,8.8-20,20-20h341.6
	c11.2,0,20,8.8,20,20v235.2H435.2z"/>
<path style="fill:#2E414C;" d="M52.8,137.2c0-11.2,8.8-20,20-20h341.6c11.2,0,20,8.8,20,20v235.2c0,11.2-8.8,20-20,20"/>
<g>
	<path style="fill:#5BC914;" d="M108,242c0,3.2-3.2,6.4-6.4,6.4l0,0c-3.2,0-6.4-3.2-6.4-6.4v-68.8c0-3.2,3.2-6.4,6.4-6.4l0,0
		c3.2,0,6.4,3.2,6.4,6.4V242z"/>
	<path style="fill:#5BC914;" d="M174.4,242c0,3.2-3.2,6.4-6.4,6.4l0,0c-3.2,0-6.4-3.2-6.4-6.4v-68.8c0-3.2,3.2-6.4,6.4-6.4l0,0
		c3.2,0,6.4,3.2,6.4,6.4V242z"/>
	<path style="fill:#5BC914;" d="M155.2,154.8c3.2,0,6.4,3.2,6.4,6.4l0,0c0,3.2-3.2,6.4-6.4,6.4h-40.8c-3.2,0-6.4-3.2-6.4-6.4l0,0
		c0-3.2,3.2-6.4,6.4-6.4H155.2z"/>
</g>
<path style="fill:#233535;" d="M155.2,248.4c3.2,0,6.4,3.2,6.4,6.4l0,0c0,3.2-3.2,6.4-6.4,6.4h-40.8c-3.2,0-6.4-3.2-6.4-6.4l0,0
	c0-3.2,3.2-6.4,6.4-6.4H155.2z"/>
<g>
	<path style="fill:#5BC914;" d="M108,335.6c0,3.2-3.2,6.4-6.4,6.4l0,0c-3.2,0-6.4-3.2-6.4-6.4v-68.8c0-3.2,3.2-6.4,6.4-6.4l0,0
		c3.2,0,6.4,3.2,6.4,6.4V335.6z"/>
	<path style="fill:#5BC914;" d="M174.4,335.6c0,3.2-3.2,6.4-6.4,6.4l0,0c-3.2,0-6.4-3.2-6.4-6.4v-68.8c0-3.2,3.2-6.4,6.4-6.4l0,0
		c3.2,0,6.4,3.2,6.4,6.4V335.6z"/>
	<path style="fill:#5BC914;" d="M155.2,342c3.2,0,6.4,3.2,6.4,6.4l0,0c0,3.2-3.2,6.4-6.4,6.4h-40.8c-3.2,0-6.4-3.2-6.4-6.4l0,0
		c0-3.2,3.2-6.4,6.4-6.4H155.2z"/>
</g>
<path style="fill:#233535;" d="M214.4,242c0,3.2-3.2,6.4-6.4,6.4l0,0c-3.2,0-6.4-3.2-6.4-6.4v-68.8c0-3.2,3.2-6.4,6.4-6.4l0,0
	c3.2,0,6.4,3.2,6.4,6.4V242z"/>
<g>
	<path style="fill:#5BC914;" d="M280.8,242c0,3.2-3.2,6.4-6.4,6.4l0,0c-3.2,0-6.4-3.2-6.4-6.4v-68.8c0-3.2,3.2-6.4,6.4-6.4l0,0
		c3.2,0,6.4,3.2,6.4,6.4V242z"/>
	<path style="fill:#5BC914;" d="M261.6,154.8c3.2,0,6.4,3.2,6.4,6.4l0,0c0,3.2-3.2,6.4-6.4,6.4h-40.8c-3.2,0-6.4-3.2-6.4-6.4l0,0
		c0-3.2,3.2-6.4,6.4-6.4H261.6z"/>
</g>
<g>
	<path style="fill:#233535;" d="M261.6,248.4c3.2,0,6.4,3.2,6.4,6.4l0,0c0,3.2-3.2,6.4-6.4,6.4h-40.8c-3.2,0-6.4-3.2-6.4-6.4l0,0
		c0-3.2,3.2-6.4,6.4-6.4H261.6z"/>
	<path style="fill:#233535;" d="M214.4,335.6c0,3.2-3.2,6.4-6.4,6.4l0,0c-3.2,0-6.4-3.2-6.4-6.4v-68.8c0-3.2,3.2-6.4,6.4-6.4l0,0
		c3.2,0,6.4,3.2,6.4,6.4V335.6z"/>
</g>
<path style="fill:#5BC914;" d="M280.8,335.6c0,3.2-3.2,6.4-6.4,6.4l0,0c-3.2,0-6.4-3.2-6.4-6.4v-68.8c0-3.2,3.2-6.4,6.4-6.4l0,0
	c3.2,0,6.4,3.2,6.4,6.4V335.6z"/>
<g>
	<path style="fill:#233535;" d="M261.6,342c3.2,0,6.4,3.2,6.4,6.4l0,0c0,3.2-3.2,6.4-6.4,6.4h-40.8c-3.2,0-6.4-3.2-6.4-6.4l0,0
		c0-3.2,3.2-6.4,6.4-6.4H261.6z"/>
	<path style="fill:#233535;" d="M318.4,303.6c0,1.6-1.6,3.2-3.2,3.2l0,0c-1.6,0-3.2-1.6-3.2-3.2v-31.2c0-1.6,1.6-3.2,3.2-3.2l0,0
		c1.6,0,3.2,1.6,3.2,3.2V303.6z"/>
</g>
<g>
	<path style="fill:#5BC914;" d="M348.8,303.6c0,1.6-1.6,3.2-3.2,3.2l0,0c-1.6,0-3.2-1.6-3.2-3.2v-31.2c0-1.6,1.6-3.2,3.2-3.2l0,0
		c1.6,0,3.2,1.6,3.2,3.2V303.6z"/>
	<path style="fill:#5BC914;" d="M340,263.6c1.6,0,3.2,1.6,3.2,3.2l0,0c0,1.6-1.6,3.2-3.2,3.2h-18.4c-1.6,0-3.2-1.6-3.2-3.2l0,0
		c0-1.6,1.6-3.2,3.2-3.2H340z"/>
	<path style="fill:#5BC914;" d="M340,306c1.6,0,3.2,1.6,3.2,3.2l0,0c0,1.6-1.6,3.2-3.2,3.2h-18.4c-1.6,0-3.2-1.6-3.2-3.2l0,0
		c0-1.6,1.6-3.2,3.2-3.2H340z"/>
	<path style="fill:#5BC914;" d="M318.4,346c0,1.6-1.6,3.2-3.2,3.2l0,0c-1.6,0-3.2-1.6-3.2-3.2v-31.2c0-1.6,1.6-3.2,3.2-3.2l0,0
		c1.6,0,3.2,1.6,3.2,3.2V346z"/>
</g>
<path style="fill:#233535;" d="M348.8,346c0,1.6-1.6,3.2-3.2,3.2l0,0c-1.6,0-3.2-1.6-3.2-3.2v-31.2c0-1.6,1.6-3.2,3.2-3.2l0,0
	c1.6,0,3.2,1.6,3.2,3.2V346z"/>
<g>
	<path style="fill:#5BC914;" d="M340,348.4c1.6,0,3.2,1.6,3.2,3.2l0,0c0,1.6-1.6,3.2-3.2,3.2h-18.4c-1.6,0-3.2-1.6-3.2-3.2l0,0
		c0-1.6,1.6-3.2,3.2-3.2H340z"/>
	<path style="fill:#5BC914;" d="M366.4,303.6c0,1.6-1.6,3.2-3.2,3.2l0,0c-1.6,0-3.2-1.6-3.2-3.2v-31.2c0-1.6,1.6-3.2,3.2-3.2l0,0
		c1.6,0,3.2,1.6,3.2,3.2V303.6z"/>
	<path style="fill:#5BC914;" d="M396.8,303.6c0,1.6-1.6,3.2-3.2,3.2l0,0c-1.6,0-3.2-1.6-3.2-3.2v-31.2c0-1.6,1.6-3.2,3.2-3.2l0,0
		c1.6,0,3.2,1.6,3.2,3.2V303.6z"/>
	<path style="fill:#5BC914;" d="M388,263.6c1.6,0,3.2,1.6,3.2,3.2l0,0c0,1.6-1.6,3.2-3.2,3.2h-18.4c-1.6,0-3.2-1.6-3.2-3.2l0,0
		c0-1.6,1.6-3.2,3.2-3.2H388z"/>
	<path style="fill:#5BC914;" d="M388,306c1.6,0,3.2,1.6,3.2,3.2l0,0c0,1.6-1.6,3.2-3.2,3.2h-18.4c-1.6,0-3.2-1.6-3.2-3.2l0,0
		c0-1.6,1.6-3.2,3.2-3.2H388z"/>
	<path style="fill:#5BC914;" d="M366.4,346c0,1.6-1.6,3.2-3.2,3.2l0,0c-1.6,0-3.2-1.6-3.2-3.2v-31.2c0-1.6,1.6-3.2,3.2-3.2l0,0
		c1.6,0,3.2,1.6,3.2,3.2V346z"/>
	<path style="fill:#5BC914;" d="M396.8,346c0,1.6-1.6,3.2-3.2,3.2l0,0c-1.6,0-3.2-1.6-3.2-3.2v-31.2c0-1.6,1.6-3.2,3.2-3.2l0,0
		c1.6,0,3.2,1.6,3.2,3.2V346z"/>
	<path style="fill:#5BC914;" d="M388,348.4c1.6,0,3.2,1.6,3.2,3.2l0,0c0,1.6-1.6,3.2-3.2,3.2h-18.4c-1.6,0-3.2-1.6-3.2-3.2l0,0
		c0-1.6,1.6-3.2,3.2-3.2H388z"/>
	<path style="fill:#5BC914;" d="M396.8,204.4c0,2.4-2.4,4.8-4.8,4.8h-74.4c-2.4,0-4.8-2.4-4.8-4.8v-44.8c0-2.4,2.4-4.8,4.8-4.8H392
		c2.4,0,4.8,2.4,4.8,4.8V204.4z"/>
</g>
<g>
	<path style="fill:#3A5051;" d="M351.2,196.4l-10.4-31.2c0-0.8-0.8-0.8-0.8-0.8h-4.8c-0.8,0-0.8,0-0.8,0.8l-11.2,31.2v0.8l0.8,0.8h4
		c0.8,0,0.8,0,0.8-0.8l3.2-8.8h9.6l3.2,8.8c0,0.8,0.8,0.8,0.8,0.8h4c0,0,0.8,0,0.8-0.8C351.2,197.2,351.2,197.2,351.2,196.4z
		 M340,183.6h-6.4l2.4-7.2c0-0.8,0-1.6,0.8-2.4c0,0.8,0.8,1.6,0.8,2.4L340,183.6z"/>
	<path style="fill:#3A5051;" d="M386.4,196.4l-1.6-30.4c0-0.8-0.8-0.8-0.8-0.8h-4.8c-0.8,0-0.8,0-0.8,0.8l-6.4,15.2
		c-0.8,2.4-1.6,4.8-2.4,7.2c-0.8-2.4-1.6-4-2.4-7.2l-5.6-15.2c0-0.8-0.8-0.8-0.8-0.8H356c-0.8,0-0.8,0.8-0.8,0.8l-2.4,31.2v0.8h0.8
		h4c0.8,0,0.8-0.8,0.8-0.8l0.8-13.6c0-2.4,0-4.8,0-7.2c0.8,1.6,0.8,4,1.6,5.6l4.8,14.4c0,0.8,0.8,0.8,0.8,0.8h3.2
		c0.8,0,0.8,0,0.8-0.8l5.6-15.2c0.8-2.4,1.6-4,2.4-6.4c0,2.4,0,4.8,0,7.2l0.8,13.6c0,0.8,0.8,0.8,0.8,0.8h4l0,0
		C385.6,198,386.4,198,386.4,196.4C386.4,197.2,386.4,197.2,386.4,196.4z"/>
</g>
<g>
	<path style="fill:#233535;" d="M335.2,217.2c-2.4,0-5.6,0-8,0.8c-0.8,0-0.8,0.8-0.8,0.8v30.4c0,0.8,0.8,0.8,0.8,0.8h4
		c0.8,0,0.8-0.8,0.8-0.8V238c0.8,0,1.6,0,2.4,0c4,0,8-1.6,10.4-4c1.6-1.6,2.4-4,2.4-7.2s-0.8-5.6-3.2-7.2
		C342.4,218,339.2,217.2,335.2,217.2z M335.2,233.2c-0.8,0-1.6,0-2.4,0v-10.4c0.8,0,1.6,0,2.4,0c3.2,0,6.4,0.8,6.4,4.8
		C341.6,232.4,337.6,233.2,335.2,233.2z"/>
	<path style="fill:#233535;" d="M380,217.2h-4.8c-0.8,0-0.8,0-0.8,0.8l-5.6,15.2c-0.8,2.4-1.6,4.8-2.4,7.2c-0.8-2.4-1.6-4-2.4-7.2
		l-5.6-15.2c0-0.8-0.8-0.8-0.8-0.8h-4.8c-0.8,0-0.8,0.8-0.8,0.8l-2.4,31.2v0.8h0.8h4c0.8,0,0.8-0.8,0.8-0.8l0.8-12.8
		c0-2.4,0-4.8,0-7.2c0.8,1.6,0.8,4,1.6,5.6l4.8,14.4c0,0.8,0.8,0.8,0.8,0.8h3.2c0.8,0,0.8,0,0.8-0.8l5.6-15.2c0.8-2.4,1.6-4,2.4-6.4
		c0,2.4,0,4.8,0,7.2l0.8,13.6c0,0.8,0.8,0.8,0.8,0.8h4h0.8v-0.8L380,217.2C380.8,218,380.8,217.2,380,217.2z"/>
</g>
<g>
	<path style="fill:#527A7C;" d="M471.2,94.8c0,1.6-1.6,3.2-3.2,3.2h-20.8c-1.6,0-3.2-1.6-3.2-3.2l0,0c0-1.6,1.6-3.2,3.2-3.2H468
		C470.4,91.6,471.2,93.2,471.2,94.8L471.2,94.8z"/>
	<path style="fill:#527A7C;" d="M471.2,112.4c0,1.6-1.6,3.2-3.2,3.2h-20.8c-1.6,0-3.2-1.6-3.2-3.2l0,0c0-1.6,1.6-3.2,3.2-3.2H468
		C470.4,108.4,471.2,110,471.2,112.4L471.2,112.4z"/>
	<path style="fill:#527A7C;" d="M471.2,129.2c0,1.6-1.6,3.2-3.2,3.2h-20.8c-1.6,0-3.2-1.6-3.2-3.2l0,0c0-1.6,1.6-3.2,3.2-3.2H468
		C470.4,126,471.2,127.6,471.2,129.2L471.2,129.2z"/>
</g>
<g>
	<path style="fill:#5BC914;" d="M301.6,267.6c0,2.4-1.6,4-4,4l0,0c-2.4,0-4-1.6-4-4l0,0c0-2.4,1.6-4,4-4l0,0
		C300,263.6,301.6,265.2,301.6,267.6L301.6,267.6z"/>
	<path style="fill:#5BC914;" d="M301.6,288.4c0,2.4-1.6,4-4,4l0,0c-2.4,0-4-1.6-4-4l0,0c0-2.4,1.6-4,4-4l0,0
		C300,284.4,301.6,286,301.6,288.4L301.6,288.4z"/>
</g>
<g>
</g>
<g>
</g>
<g>
</g>
<g>
</g>
<g>
</g>
<g>
</g>
<g>
</g>
<g>
</g>
<g>
</g>
<g>
</g>
<g>
</g>
<g>
</g>
<g>
</g>
<g>
</g>
<g>
</g>
</svg>
